<svg xmlns="http://www.w3.org/2000/svg" xmlns:xlink="http://www.w3.org/1999/xlink" width="468.286" height="341.827" viewBox="0 0 468.286 341.827"><defs><linearGradient id="linear-gradient" x1="0.399" y1="-0.002" x2="0.624" y2="0.999" gradientUnits="objectBoundingBox"><stop offset="0" stop-color="#d07201"></stop><stop offset="0.17" stop-color="#e7ba62"></stop><stop offset="0.216" stop-color="#ecca87"></stop><stop offset="0.266" stop-color="#f1d8a7"></stop><stop offset="0.322" stop-color="#f5e4c2"></stop><stop offset="0.386" stop-color="#f9eed8"></stop><stop offset="0.459" stop-color="#fbf5ea"></stop><stop offset="0.549" stop-color="#fdfbf6"></stop><stop offset="0.674" stop-color="#fefefd"></stop><stop offset="1" stop-color="#fff"></stop></linearGradient><linearGradient id="linear-gradient-2" x1="0.095" y1="-0.018" x2="1.021" y2="1.032" gradientUnits="objectBoundingBox"><stop offset="0" stop-color="#d07201"></stop><stop offset="0.039" stop-color="#d88c24"></stop><stop offset="0.083" stop-color="#e0a545"></stop><stop offset="0.119" stop-color="#e5b45a"></stop><stop offset="0.144" stop-color="#e7ba62"></stop><stop offset="0.19" stop-color="#ebc67e" stop-opacity="0.82"></stop><stop offset="0.248" stop-color="#efd39c" stop-opacity="0.631"></stop><stop offset="0.31" stop-color="#f3dfb6" stop-opacity="0.459"></stop><stop offset="0.376" stop-color="#f7e9cd" stop-opacity="0.318"></stop><stop offset="0.446" stop-color="#faf1df" stop-opacity="0.2"></stop><stop offset="0.522" stop-color="#fcf7ed" stop-opacity="0.11"></stop><stop offset="0.608" stop-color="#fdfbf7" stop-opacity="0.047"></stop><stop offset="0.71" stop-color="#fefefd" stop-opacity="0.012"></stop><stop offset="0.873" stop-color="#fff" stop-opacity="0"></stop></linearGradient></defs><g id="Group_7847" data-name="Group 7847" transform="translate(-931.715 -1525.668)"><g id="Group_7846" data-name="Group 7846" transform="translate(581.775 1327.621)"><path id="Path_3827" data-name="Path 3827" d="M456.9,401.992l-10.889,9.533,10.889-9.532Z" transform="translate(127.14 51.757)" fill="none"></path><path id="Path_3828" data-name="Path 3828" d="M444.569,409.663h0l-4.119-.444Z" transform="translate(119.783 61.321)" fill="none"></path><path id="Path_3829" data-name="Path 3829" d="M349.94,399.455l24.446,73.052L364.5,401.025Z" transform="translate(0 48.399)" fill="#9bd6ea"></path><path id="Path_3830" data-name="Path 3830" d="M462.924,411.206l-32.379-3.488-7.076,69.647L452.9,480.54l14.139-68.89Z" transform="translate(97.31 59.334)" fill="#bbe4f1"></path><path id="Path_3831" data-name="Path 3831" d="M405.375,405.439l-41.968-4.531,11.059,71.607-.789-.085,26.422,2.85h0l-.262-.028Z" transform="translate(17.823 50.322)" fill="#e6f5fa"></path><path id="Path_3832" data-name="Path 3832" d="M431.514,408.256v70.411l-16.039-1.731,6.745-69.684-22.054-2.377,3.755,70.816-5.586-.6-1.924-70.618-9.51-1.025,4.487,70.895-.662-.072,65.074,7.021,4.779-69.9Zm5.353,70.99,6.784-68.376,2.1,69.333Z" transform="translate(48.916 53.679)" fill="#e6f5fa"></path><path id="Path_3833" data-name="Path 3833" d="M455.473,398.865l-2.115,1.851h0Z" transform="translate(136.866 47.619)" fill="#e6f5fa"></path><path id="Path_3834" data-name="Path 3834" d="M450.513,477.618l13.565-11.875,24.446-77.912L477.05,397.876Z" transform="translate(133.101 33.016)" fill="#e6f5fa"></path><path id="Path_3835" data-name="Path 3835" d="M459.073,411.525l-8.8,7.7h0l-14.139,68.89,12-10.505,21.825-75.618Z" transform="translate(114.075 51.758)" fill="#e6f5fa"></path><path id="Path_3836" data-name="Path 3836" d="M423.2,455.756l12.62,1.361h0l9.51,1.026h0l19.063-20.021L449.08,458.549h0l22.054,2.379h0l9.293,1h0l29.066,3.136h0l17.182,1.854,1.177.127h0l32.378,3.493,4.119.444,8.8-7.7,10.889-9.533-16.979-8.774-9.777,2.878-13.388-6.237,15.288,3.36,7.871-3.36,23.169,6.719,31.4-27.492-14.251-23.894L559.18,379.236l-11.35,8.741,7.629-10.113h0l-1.6-.588L480.43,362.884,423.2,393.893l-61.037,11.174L349.942,447.85l26.944,2.906,3.434.374.909.1Z" transform="translate(0.002)" fill="#fff"></path><path id="Path_3837" data-name="Path 3837" d="M426.515,407.72l32.379,3.488-32.379-3.493Z" transform="translate(101.34 59.331)" fill="#fff"></path><rect id="Rectangle_95" data-name="Rectangle 95" width="42.212" height="0.003" transform="translate(381.518 457.632) rotate(-11.31)" fill="#fff"></rect><rect id="Rectangle_96" data-name="Rectangle 96" width="29.235" height="0.002" transform="translate(480.345 463.498)" fill="#fff"></rect><rect id="Rectangle_97" data-name="Rectangle 97" width="22.182" height="0.004" transform="translate(449.018 459.738)" fill="#fff"></rect><rect id="Rectangle_98" data-name="Rectangle 98" width="9.565" height="0.005" transform="translate(435.808 458.04) rotate(-4.911)" fill="#fff"></rect><path id="Path_3838" data-name="Path 3838" d="M442.224,413.8l8.8-7.7-8.8,7.7Z" transform="translate(122.129 57.188)" fill="#fff"></path><path id="Path_3839" data-name="Path 3839" d="M438.517,408.72l-17.179-1.857h0l-4.779,69.9,14.175,1.529,1.886.2,7.076-69.647Z" transform="translate(88.161 58.204)" fill="#e6f5fa"></path><path id="Path_3840" data-name="Path 3840" d="M424.543,437.809h0l-1.886-.2Z" transform="translate(96.235 98.889)" fill="#e6f5fa"></path><path id="Path_3841" data-name="Path 3841" d="M435.8,408.717l-17.182-1.854h0l17.179,1.857,1.178.127v0Z" transform="translate(90.883 58.203)" fill="#e6f5fa"></path><path id="Path_3842" data-name="Path 3842" d="M427.185,407.788l-1.177-.127,1.177.127Z" transform="translate(100.67 59.259)" fill="#e6f5fa"></path><path id="Path_3843" data-name="Path 3843" d="M401.732,475.114l-4.486-70.894h-.006l-12.612-1.361h0l-5.538,69.813.262.028h0l21.721,2.343-.156-.017Z" transform="translate(38.573 52.903)" fill="#bbe4f1"></path><path id="Path_3844" data-name="Path 3844" d="M379.087,432.906l.262.028h0Z" transform="translate(38.573 92.668)" fill="#bbe4f1"></path><path id="Path_3845" data-name="Path 3845" d="M388.481,433.919l.156.017.662.072Z" transform="translate(51.006 94.01)" fill="#bbe4f1"></path><path id="Path_3846" data-name="Path 3846" d="M394.09,404.217l-12.62-1.361v0h0l12.612,1.361h.006v-.005Z" transform="translate(41.728 52.9)" fill="#bbe4f1"></path><path id="Path_3847" data-name="Path 3847" d="M372.932,401.936l-.9-.1-15.819-1.707,12.387,1.337-12.387-1.337,9.884,71.481,17.9,1.931-11.059-71.607Z" transform="translate(8.294 49.294)" fill="#bbe4f1"></path><path id="Path_3848" data-name="Path 3848" d="M356.207,400.131h0l12.387,1.337Z" transform="translate(8.294 49.294)" fill="#bbe4f1"></path><path id="Path_3849" data-name="Path 3849" d="M363.925,400.964h0l-.909-.1.9.1Z" transform="translate(17.305 50.266)" fill="#bbe4f1"></path><path id="Path_3850" data-name="Path 3850" d="M399.2,474.767l16.038,1.73V406.085l-9.293-1Z" transform="translate(65.191 55.848)" fill="#bbe4f1"></path><rect id="Rectangle_99" data-name="Rectangle 99" height="9.347" transform="translate(471.137 460.928) rotate(-83.843)" fill="#bbe4f1"></rect><rect id="Rectangle_100" data-name="Rectangle 100" width="0.003" height="9.347" transform="translate(471.156 460.771) rotate(-81.87)" fill="#bbe4f1"></rect><path id="Path_3851" data-name="Path 3851" d="M408.407,475.015l8.882.958-2.1-69.334Z" transform="translate(77.376 57.908)" fill="#bbe4f1"></path><path id="Path_3852" data-name="Path 3852" d="M392.919,474.5l5.585.6-3.754-70.816-3.754-.4Z" transform="translate(54.333 54.263)" fill="#9bd6ea"></path><rect id="Rectangle_101" data-name="Rectangle 101" height="3.776" transform="translate(445.328 458.144) rotate(-83.844)" fill="#9bd6ea"></rect><rect id="Rectangle_102" data-name="Rectangle 102" width="3.776" height="0.004" transform="translate(445.317 458.346)" fill="#9bd6ea"></rect><path id="Path_3853" data-name="Path 3853" d="M410.058,395.266,391,415.287l3.754.4Z" transform="translate(54.333 42.856)" fill="#9bd6ea"></path><path id="Path_3854" data-name="Path 3854" d="M442.117,370.7h0l-3.72-1.372h0l3.72,1.372Z" transform="translate(117.065 8.532)" fill="#9bd6ea"></path><path id="Path_3855" data-name="Path 3855" d="M446.463,370.7h0l-3.72-1.372-7.629,10.113Z" transform="translate(112.719 8.533)" fill="#9bd6ea"></path><path id="Path_3856" data-name="Path 3856" d="M472.082,392.153l-17.813,15.6,17.812-15.593Z" transform="translate(138.07 38.735)" fill="#bbe4f1"></path><rect id="Rectangle_103" data-name="Rectangle 103" width="12.772" transform="translate(574.004 519.047) rotate(-41.199)" fill="#bbe4f1"></rect><path id="Path_3857" data-name="Path 3857" d="M464.712,407.747,462.6,409.6l-16.22,70.711,9.61-8.412,26.537-79.742Z" transform="translate(127.627 38.737)" fill="#bbe4f1"></path><path id="Path_3858" data-name="Path 3858" d="M450.7,405.076h0l6.186-5.415h0l-6.184,5.414Z" transform="translate(133.342 48.673)" fill="#9bd6ea"></path><path id="Path_3859" data-name="Path 3859" d="M467.617,399.662h0l-6.186,5.415-18.846,65.3H451.4Z" transform="translate(122.608 48.673)" fill="#9bd6ea"></path><path id="Path_3860" data-name="Path 3860" d="M448.706,400.13l-15.288-3.36,13.388,6.237,9.777-2.878,16.979,8.774,6.184-5.415-23.169-6.719Z" transform="translate(110.476 44.846)" fill="#9bd6ea"></path></g><g id="Group_7995" data-name="Group 7995" transform="translate(906.775 1369.444)"><path id="Path_3827-2" data-name="Path 3827" d="M451.752,401.992l-5.743,5.028,5.743-5.027Z" transform="translate(21.651 8.814)" fill="none"></path><path id="Path_3828-2" data-name="Path 3828" d="M442.622,409.453h0l-2.172-.234Z" transform="translate(20.398 10.442)" fill="none"></path><path id="Path_3829-2" data-name="Path 3829" d="M349.94,399.455l12.893,38.528-5.213-37.7Z" transform="translate(0 8.242)" fill="#9bd6ea"></path><path id="Path_3830-2" data-name="Path 3830" d="M444.278,409.557l-17.076-1.84-3.732,36.732,15.523,1.675,7.457-36.332Z" transform="translate(16.571 10.104)" fill="#bbe4f1"></path><path id="Path_3831-2" data-name="Path 3831" d="M385.541,403.3l-22.134-2.39,5.832,37.765-.416-.045,13.935,1.5h0l-.138-.015Z" transform="translate(3.035 8.569)" fill="#e6f5fa"></path><path id="Path_3832-2" data-name="Path 3832" d="M410.43,405.982v37.135l-8.459-.913,3.557-36.751L393.9,404.2l1.98,37.348-2.946-.319-1.015-37.244-5.015-.54,2.366,37.39-.349-.038,34.32,3.7,2.521-36.865Zm2.823,37.44,3.578-36.061,1.105,36.566Z" transform="translate(8.33 9.141)" fill="#e6f5fa"></path><path id="Path_3833-2" data-name="Path 3833" d="M454.474,398.865l-1.115.976h0Z" transform="translate(23.307 8.109)" fill="#e6f5fa"></path><path id="Path_3834-2" data-name="Path 3834" d="M450.513,435.185l7.154-6.263,12.893-41.091-6.052,5.3Z" transform="translate(22.666 5.622)" fill="#e6f5fa"></path><path id="Path_3835-2" data-name="Path 3835" d="M448.234,407.02l-4.639,4.061h0l-7.457,36.332,6.329-5.541,11.51-39.88Z" transform="translate(19.426 8.814)" fill="#e6f5fa"></path><path id="Path_3836-2" data-name="Path 3836" d="M388.576,411.864l6.656.718h0l5.015.541h0L410.3,402.565l-8.074,10.773h0l11.631,1.255h0l4.9.529h0l15.329,1.654h0l9.062.978.621.067h0l17.076,1.842,2.172.234,4.639-4.061,5.743-5.028-8.955-4.627-5.156,1.518-7.061-3.289,8.063,1.772,4.151-1.772,12.219,3.544,16.562-14.5-7.516-12.6-25.416-9.342-5.986,4.61,4.024-5.334h0l-.843-.31-38.727-7.59-30.184,16.354-32.191,5.893-6.444,22.564,14.21,1.533,1.811.2.479.052Z" transform="translate(0)" fill="#fff"></path><path id="Path_3837-2" data-name="Path 3837" d="M426.515,407.718l17.076,1.84-17.076-1.842Z" transform="translate(17.257 10.104)" fill="#fff"></path><rect id="Rectangle_95-2" data-name="Rectangle 95" width="22.262" height="0.002" transform="translate(366.594 412.853) rotate(-11.31)" fill="#fff"></rect><rect id="Rectangle_96-2" data-name="Rectangle 96" width="15.418" height="0.001" transform="translate(418.715 415.947)" fill="#fff"></rect><rect id="Rectangle_97-2" data-name="Rectangle 97" width="11.699" height="0.002" transform="translate(402.194 413.964)" fill="#fff"></rect><rect id="Rectangle_98-2" data-name="Rectangle 98" width="5.044" height="0.003" transform="translate(395.227 413.069) rotate(-4.911)" fill="#fff"></rect><path id="Path_3838-2" data-name="Path 3838" d="M442.224,410.157l4.639-4.061-4.639,4.061Z" transform="translate(20.797 9.738)" fill="#fff"></path><path id="Path_3839-2" data-name="Path 3839" d="M428.138,407.843l-9.06-.979h0l-2.52,36.864,7.476.807.995.107,3.732-36.732Z" transform="translate(15.013 9.911)" fill="#e6f5fa"></path><path id="Path_3840-2" data-name="Path 3840" d="M423.652,437.713h0l-.995-.107Z" transform="translate(16.388 16.84)" fill="#e6f5fa"></path><path id="Path_3841-2" data-name="Path 3841" d="M427.675,407.841l-9.062-.978h0l9.06.979.621.067v0Z" transform="translate(15.476 9.911)" fill="#e6f5fa"></path><path id="Path_3842-2" data-name="Path 3842" d="M426.629,407.728l-.621-.067.621.067Z" transform="translate(17.143 10.091)" fill="#e6f5fa"></path><path id="Path_3843-2" data-name="Path 3843" d="M391.03,440.966l-2.366-37.389h0l-6.652-.718h0l-2.921,36.819.138.015h0l11.456,1.236-.082-.009Z" transform="translate(6.569 9.009)" fill="#bbe4f1"></path><path id="Path_3844-2" data-name="Path 3844" d="M379.087,432.906l.138.015h0Z" transform="translate(6.569 15.78)" fill="#bbe4f1"></path><path id="Path_3845-2" data-name="Path 3845" d="M388.481,433.919l.082.009.349.038Z" transform="translate(8.686 16.009)" fill="#bbe4f1"></path><path id="Path_3846-2" data-name="Path 3846" d="M388.126,403.574l-6.656-.718v0h0l6.652.718h0v0Z" transform="translate(7.106 9.008)" fill="#bbe4f1"></path><path id="Path_3847-2" data-name="Path 3847" d="M365.028,401.083l-.477-.052-8.343-.9,6.533.7-6.533-.7,5.213,37.7,9.442,1.019-5.832-37.765Z" transform="translate(1.412 8.394)" fill="#bbe4f1"></path><path id="Path_3848-2" data-name="Path 3848" d="M356.207,400.131h0l6.533.7Z" transform="translate(1.412 8.394)" fill="#bbe4f1"></path><path id="Path_3849-2" data-name="Path 3849" d="M363.5,400.917h0l-.479-.052.477.052Z" transform="translate(2.947 8.56)" fill="#bbe4f1"></path><path id="Path_3850-2" data-name="Path 3850" d="M399.2,441.834l8.459.913V405.612l-4.9-.529Z" transform="translate(11.101 9.51)" fill="#bbe4f1"></path><rect id="Rectangle_99-2" data-name="Rectangle 99" height="4.93" transform="translate(413.859 414.592) rotate(-83.843)" fill="#bbe4f1"></rect><rect id="Rectangle_100-2" data-name="Rectangle 100" width="0.002" height="4.93" transform="translate(413.869 414.509) rotate(-81.87)" fill="#bbe4f1"></rect><path id="Path_3851-2" data-name="Path 3851" d="M408.407,442.7l4.684.505-1.106-36.566Z" transform="translate(13.176 9.861)" fill="#bbe4f1"></path><path id="Path_3852-2" data-name="Path 3852" d="M392.01,441.129l2.945.318-1.98-37.348-1.98-.214Z" transform="translate(9.252 9.24)" fill="#9bd6ea"></path><rect id="Rectangle_101-2" data-name="Rectangle 101" height="1.992" transform="translate(400.247 413.123) rotate(-83.844)" fill="#9bd6ea"></rect><rect id="Rectangle_102-2" data-name="Rectangle 102" width="1.992" height="0.002" transform="translate(400.242 413.23)" fill="#9bd6ea"></rect><path id="Path_3853-2" data-name="Path 3853" d="M401.049,395.266,391,405.825l1.98.214Z" transform="translate(9.252 7.298)" fill="#9bd6ea"></path><path id="Path_3854-2" data-name="Path 3854" d="M440.359,370.055h0l-1.962-.724h0l1.962.724Z" transform="translate(19.935 1.453)" fill="#9bd6ea"></path><path id="Path_3855-2" data-name="Path 3855" d="M441.1,370.055h0l-1.962-.724-4.024,5.334Z" transform="translate(19.195 1.453)" fill="#9bd6ea"></path><path id="Path_3856-2" data-name="Path 3856" d="M463.663,392.153l-9.395,8.226,9.394-8.224Z" transform="translate(23.512 6.596)" fill="#bbe4f1"></path><rect id="Rectangle_103-2" data-name="Rectangle 103" width="6.736" transform="translate(468.111 445.243) rotate(-41.199)" fill="#bbe4f1"></rect><path id="Path_3857-2" data-name="Path 3857" d="M456.047,400.378l-1.115.976-8.554,37.293,5.068-4.437,14-42.056Z" transform="translate(21.733 6.597)" fill="#bbe4f1"></path><path id="Path_3858-2" data-name="Path 3858" d="M450.7,402.518h0l3.263-2.856h0l-3.262,2.856Z" transform="translate(22.707 8.289)" fill="#9bd6ea"></path><path id="Path_3859-2" data-name="Path 3859" d="M455.786,399.662h0l-3.263,2.856-9.939,34.437h4.647Z" transform="translate(20.879 8.289)" fill="#9bd6ea"></path><path id="Path_3860-2" data-name="Path 3860" d="M441.481,398.542l-8.063-1.772,7.061,3.289,5.156-1.518,8.955,4.627,3.262-2.856-12.219-3.544Z" transform="translate(18.813 7.637)" fill="#9bd6ea"></path></g><g id="Group_7996" data-name="Group 7996" transform="translate(868.775 1433.147)"><path id="Path_3827-3" data-name="Path 3827" d="M449.656,401.992l-3.647,3.193,3.647-3.193Z" transform="translate(-21.306 -8.674)" fill="none"></path><path id="Path_3828-3" data-name="Path 3828" d="M441.83,409.368h0l-1.38-.149Z" transform="translate(-20.073 -10.276)" fill="none"></path><path id="Path_3829-3" data-name="Path 3829" d="M349.94,399.455l8.188,24.469-3.311-23.942Z" transform="translate(0 -8.111)" fill="#9bd6ea"></path><path id="Path_3830-3" data-name="Path 3830" d="M436.684,408.886l-10.845-1.168-2.37,23.328,9.859,1.064,4.736-23.074Z" transform="translate(-16.307 -9.943)" fill="#bbe4f1"></path><path id="Path_3831-3" data-name="Path 3831" d="M377.464,402.426l-14.057-1.518,3.7,23.984-.264-.029,8.85.955h0l-.088-.009Z" transform="translate(-2.987 -8.433)" fill="#e6f5fa"></path><path id="Path_3832-3" data-name="Path 3832" d="M401.845,405.056V428.64l-5.372-.58,2.259-23.34-7.387-.8,1.258,23.719-1.871-.2-.644-23.653-3.185-.343,1.5,23.746-.222-.024,21.8,2.352,1.6-23.413Zm1.793,23.778,2.272-22.9.7,23.223Z" transform="translate(-8.198 -8.996)" fill="#e6f5fa"></path><path id="Path_3833-3" data-name="Path 3833" d="M454.067,398.865l-.708.62h0Z" transform="translate(-22.936 -7.98)" fill="#e6f5fa"></path><path id="Path_3834-3" data-name="Path 3834" d="M450.513,417.9l4.543-3.977,8.188-26.1L459.4,391.2Z" transform="translate(-22.305 -5.533)" fill="#e6f5fa"></path><path id="Path_3835-3" data-name="Path 3835" d="M443.82,405.186l-2.946,2.579h0l-4.736,23.074,4.019-3.519,7.31-25.328Z" transform="translate(-19.117 -8.674)" fill="#e6f5fa"></path><path id="Path_3836-3" data-name="Path 3836" d="M374.478,393.991l4.227.456h0l3.185.344h0l6.385-6.706-5.128,6.842h0l7.387.8h0l3.113.336h0l9.736,1.05h0l5.755.621.394.043h0l10.845,1.17,1.38.149,2.946-2.579,3.647-3.193-5.687-2.939-3.275.964-4.484-2.089,5.121,1.125,2.636-1.125,7.76,2.251L440.94,382.3l-4.773-8-16.142-5.933-3.8,2.928,2.555-3.387h0l-.535-.2-24.6-4.82-19.17,10.386-20.444,3.743-4.093,14.33,9.025.973,1.15.125.3.033Z" transform="translate(0)" fill="#fff"></path><path id="Path_3837-3" data-name="Path 3837" d="M426.515,407.717l10.845,1.168-10.845-1.17Z" transform="translate(-16.983 -9.943)" fill="#fff"></path><rect id="Rectangle_95-3" data-name="Rectangle 95" width="14.139" height="0.001" transform="translate(360.517 394.619) rotate(-11.31)" fill="#fff"></rect><rect id="Rectangle_96-3" data-name="Rectangle 96" width="9.792" height="0.001" transform="translate(393.619 396.584)" fill="#fff"></rect><rect id="Rectangle_97-3" data-name="Rectangle 97" width="7.43" height="0.001" transform="translate(383.126 395.325)" fill="#fff"></rect><rect id="Rectangle_98-3" data-name="Rectangle 98" width="3.204" height="0.002" transform="translate(378.701 394.756) rotate(-4.911)" fill="#fff"></rect><path id="Path_3838-3" data-name="Path 3838" d="M442.223,408.675l2.946-2.579-2.946,2.579Z" transform="translate(-20.467 -9.584)" fill="#fff"></path><path id="Path_3839-3" data-name="Path 3839" d="M423.912,407.486l-5.754-.622h0l-1.6,23.412,4.748.512.632.068,2.37-23.328Z" transform="translate(-14.774 -9.754)" fill="#e6f5fa"></path><path id="Path_3840-3" data-name="Path 3840" d="M423.289,437.674h0l-.632-.068Z" transform="translate(-16.127 -16.572)" fill="#e6f5fa"></path><path id="Path_3841-3" data-name="Path 3841" d="M424.368,407.484l-5.755-.621h0l5.754.622.394.042h0Z" transform="translate(-15.23 -9.754)" fill="#e6f5fa"></path><path id="Path_3842-3" data-name="Path 3842" d="M426.4,407.7l-.394-.043.394.043Z" transform="translate(-16.871 -9.931)" fill="#e6f5fa"></path><path id="Path_3843-3" data-name="Path 3843" d="M386.672,427.06l-1.5-23.746h0l-4.224-.456h0l-1.855,23.384.088.009h0l7.275.785-.052-.006Z" transform="translate(-6.464 -8.866)" fill="#bbe4f1"></path><path id="Path_3844-3" data-name="Path 3844" d="M379.087,432.906l.088.009h0Z" transform="translate(-6.464 -15.53)" fill="#bbe4f1"></path><path id="Path_3845-3" data-name="Path 3845" d="M388.481,433.919l.052.006.222.024Z" transform="translate(-8.548 -15.754)" fill="#bbe4f1"></path><path id="Path_3846-3" data-name="Path 3846" d="M385.7,403.312l-4.227-.456v0h0l4.224.456h0v0Z" transform="translate(-6.993 -8.865)" fill="#bbe4f1"></path><path id="Path_3847-3" data-name="Path 3847" d="M361.809,400.735l-.3-.033-5.3-.572,4.149.448-4.149-.448,3.311,23.942,6,.647-3.7-23.985Z" transform="translate(-1.39 -8.261)" fill="#bbe4f1"></path><path id="Path_3848-3" data-name="Path 3848" d="M356.207,400.131h0l4.149.448Z" transform="translate(-1.39 -8.261)" fill="#bbe4f1"></path><path id="Path_3849-3" data-name="Path 3849" d="M363.321,400.9h0l-.3-.033.3.033Z" transform="translate(-2.9 -8.424)" fill="#bbe4f1"></path><path id="Path_3850-3" data-name="Path 3850" d="M399.2,428.424l5.372.58V405.419l-3.113-.336Z" transform="translate(-10.925 -9.359)" fill="#bbe4f1"></path><rect id="Rectangle_99-3" data-name="Rectangle 99" height="3.131" transform="translate(390.534 395.723) rotate(-83.843)" fill="#bbe4f1"></rect><rect id="Rectangle_100-3" data-name="Rectangle 100" width="0.001" height="3.131" transform="translate(390.541 395.671) rotate(-81.87)" fill="#bbe4f1"></rect><path id="Path_3851-3" data-name="Path 3851" d="M408.407,429.542l2.975.321-.7-23.223Z" transform="translate(-12.967 -9.704)" fill="#bbe4f1"></path><path id="Path_3852-3" data-name="Path 3852" d="M391.639,427.539l1.871.2-1.257-23.719L391,403.885Z" transform="translate(-9.105 -9.093)" fill="#9bd6ea"></path><rect id="Rectangle_101-3" data-name="Rectangle 101" height="1.265" transform="translate(381.89 394.79) rotate(-83.844)" fill="#9bd6ea"></rect><rect id="Rectangle_102-3" data-name="Rectangle 102" width="1.265" height="0.001" transform="translate(381.886 394.858)" fill="#9bd6ea"></rect><path id="Path_3853-3" data-name="Path 3853" d="M397.38,395.266,391,401.972l1.258.136Z" transform="translate(-9.105 -7.182)" fill="#9bd6ea"></path><path id="Path_3854-3" data-name="Path 3854" d="M439.643,369.79h0l-1.246-.46h0l1.246.46Z" transform="translate(-19.618 -1.43)" fill="#9bd6ea"></path><path id="Path_3855-3" data-name="Path 3855" d="M438.915,369.791h0l-1.246-.46-2.555,3.387Z" transform="translate(-18.89 -1.43)" fill="#9bd6ea"></path><path id="Path_3856-3" data-name="Path 3856" d="M460.235,392.153l-5.966,5.224,5.966-5.223Z" transform="translate(-23.138 -6.491)" fill="#bbe4f1"></path><rect id="Rectangle_103-3" data-name="Rectangle 103" width="4.278" transform="translate(424.989 415.19) rotate(-41.199)" fill="#bbe4f1"></rect><path id="Path_3857-3" data-name="Path 3857" d="M452.518,397.377l-.708.62-5.433,23.684,3.219-2.818,8.888-26.709Z" transform="translate(-21.388 -6.492)" fill="#bbe4f1"></path><path id="Path_3858-3" data-name="Path 3858" d="M450.7,401.476h0l2.072-1.814h0l-2.071,1.814Z" transform="translate(-22.346 -8.157)" fill="#9bd6ea"></path><path id="Path_3859-3" data-name="Path 3859" d="M450.969,399.662h0l-2.072,1.814-6.312,21.871h2.952Z" transform="translate(-20.547 -8.157)" fill="#9bd6ea"></path><path id="Path_3860-3" data-name="Path 3860" d="M438.539,397.9l-5.121-1.125,4.484,2.089,3.275-.964,5.687,2.939,2.071-1.814-7.76-2.251Z" transform="translate(-18.514 -7.515)" fill="#9bd6ea"></path></g><g id="Group_7834" data-name="Group 7834" transform="translate(-1461.666 1412.057)"><path id="Path_3821" data-name="Path 3821" d="M2574.919,335.615c-8.026,3.6-22.015-2.819-27.259-5.51-1.3-.668-2.064-1.108-2.064-1.108-10.5,1.153-24.584,5.95-24.584,5.95-2.064-11.049-26.1-66.9-30.474-98.038s-.274-52.813,6.738-70.023c4.441-10.9,7.788-18.918,8.785-25.019.579-3.53.373-6.418-.862-8.855a30.216,30.216,0,0,0-9.016-10.349,33.671,33.671,0,0,0-18.3-6.132c3.189-3.825,8.713-2.792,12.9-2.792s11.352,2.549,18.606.971c19.4-3.825,26.8,10.078,28.684,13.3s8.437,22.643,16.573,43.646,15.174,38.607,17.239,56.7-.728,43.1-4.006,62.769,1.276,35.693,3.46,39.336S2577.1,334.885,2574.919,335.615Z" transform="translate(0 0)" fill="#020303"></path><path id="Path_3822" data-name="Path 3822" d="M2590.706,357.933q.234,6.391.106,11.978c-.426,19.949-3.967,32.574-7.754,40.532a4.289,4.289,0,0,0-1.521-.8,5.513,5.513,0,0,0-3.88.608,76.857,76.857,0,0,0-9.47,5.707,6.834,6.834,0,0,0-3.422-3.21c-2.7-1.065-6.072-.074-8.354,2.542.12-1.869-.851-3.571-1.7-6.01a48.316,48.316,0,0,0-3.885-7.771c-2.422-2.932-16.083-27.112-22.383-64.071-1.086-6.365-3.2-15.04-3.756-22.119-1.206-15.436-3.472-39.953,7.988-68.091,4.44-10.9,7.787-18.918,8.785-25.019a15.448,15.448,0,0,1,8.653-2.845c9.068,0,16.5,14.379,22.32,32.795a135.343,135.343,0,0,1,.67,27.393c-1.622,16.686,5.851,52.052,16.895,66.678,0,0,7.6-17.051,8.146-27.888.541-10.679-2.9-34.621-3-35.316.14.582,4.284,18.1,4.64,33.585C2600.115,331.023,2593.207,346.123,2590.706,357.933Z" transform="translate(-35.397 -80.339)" fill="url(#linear-gradient)"></path><path id="Path_3823" data-name="Path 3823" d="M2544.26,140.464a109.325,109.325,0,0,0-17.849-3.155,32.226,32.226,0,0,0-8.741-4.419C2525.636,133.733,2538.79,135.79,2544.26,140.464Z" transform="translate(-30.229 -14.646)" fill="#da7c02"></path><path id="Path_3824" data-name="Path 3824" d="M2638.558,165.944s13.021-3.369,8.65-11.928c-1.457-2.549,7.285-9.834,13.112,3.733s21.307,66.472,21.307,66.472l-21.307-25.132S2655.677,170.224,2638.558,165.944Z" transform="translate(-122.069 -27.469)" fill="url(#linear-gradient-2)"></path><path id="Path_3825" data-name="Path 3825" d="M2603.36,743.218c-.425,19.949-3.967,32.574-7.754,40.532a4.287,4.287,0,0,0-1.521-.805,5.514,5.514,0,0,0-3.881.608,76.791,76.791,0,0,0-9.47,5.707,6.839,6.839,0,0,0-3.422-3.21c-2.7-1.065-6.072-.075-8.355,2.542.12-1.869-.851-3.571-1.7-6.01a48.308,48.308,0,0,0-3.885-7.771c-2.422-2.932-16.083-27.112-22.383-64.071,8.47,18.673,19.872,37.995,31.548,40.458C2592.035,755.309,2598.794,754.072,2603.36,743.218Z" transform="translate(-47.945 -453.645)" fill="#020303" opacity="0.2" style="mix-blend-mode: multiply;isolation: isolate"></path><path id="Path_3826" data-name="Path 3826" d="M2580.08,989.218c-1.436-.132-2.949-.223-4.387-.225a6.332,6.332,0,0,0-5.469,3.245c-1.336,2.327-4.525,5.316-12.118,5.673-12.63.595-23.923.743-27.043,8.172-.892,2.526,14.116-2.229,25.26-.3,8.394,1.455,22.268.718,28.1-6.4A6.266,6.266,0,0,0,2580.08,989.218Z" transform="translate(-40.375 -665.036)" fill="#020303"></path></g></g></svg>