<svg xmlns="http://www.w3.org/2000/svg" xmlns:xlink="http://www.w3.org/1999/xlink" width="982.473" height="705.544" viewBox="0 0 982.473 705.544"><defs><linearGradient id="linear-gradient" x1="0.434" x2="0.619" y2="0.999" gradientUnits="objectBoundingBox"><stop offset="0" stop-color="#d07201"></stop><stop offset="0.17" stop-color="#e7ba62"></stop><stop offset="0.216" stop-color="#ecca87"></stop><stop offset="0.266" stop-color="#f1d8a7"></stop><stop offset="0.322" stop-color="#f5e4c2"></stop><stop offset="0.386" stop-color="#f9eed8"></stop><stop offset="0.459" stop-color="#fbf5ea"></stop><stop offset="0.549" stop-color="#fdfbf6"></stop><stop offset="0.674" stop-color="#fefefd"></stop><stop offset="1" stop-color="#fff"></stop></linearGradient><linearGradient id="linear-gradient-2" x1="-0.006" y1="-0.131" x2="1.23" y2="0.998" gradientUnits="objectBoundingBox"><stop offset="0.084" stop-color="#d07201"></stop><stop offset="0.253" stop-color="#e7ba62"></stop><stop offset="0.271" stop-color="#e9c070" stop-opacity="0.906"></stop><stop offset="0.311" stop-color="#edcd8e" stop-opacity="0.718"></stop><stop offset="0.355" stop-color="#f1d9a9" stop-opacity="0.545"></stop><stop offset="0.403" stop-color="#f5e3c0" stop-opacity="0.4"></stop><stop offset="0.454" stop-color="#f8ecd4" stop-opacity="0.275"></stop><stop offset="0.512" stop-color="#faf3e3" stop-opacity="0.173"></stop><stop offset="0.578" stop-color="#fcf8f0" stop-opacity="0.094"></stop><stop offset="0.656" stop-color="#fefcf8" stop-opacity="0.039"></stop><stop offset="0.761" stop-color="#fefefd" stop-opacity="0.008"></stop><stop offset="1" stop-color="#fff" stop-opacity="0"></stop></linearGradient><linearGradient id="linear-gradient-3" x1="0.583" y1="-0.116" x2="0.459" y2="1.154" gradientUnits="objectBoundingBox"><stop offset="0.096" stop-color="#d07201"></stop><stop offset="0.205" stop-color="#e7ba62"></stop><stop offset="0.208" stop-color="#e7bb64"></stop><stop offset="0.244" stop-color="#eccb89"></stop><stop offset="0.284" stop-color="#f1d8a8"></stop><stop offset="0.329" stop-color="#f5e4c3"></stop><stop offset="0.38" stop-color="#f9eed9"></stop><stop offset="0.44" stop-color="#fbf5ea"></stop><stop offset="0.514" stop-color="#fdfbf6"></stop><stop offset="0.617" stop-color="#fefefd"></stop><stop offset="0.904" stop-color="#fff"></stop></linearGradient></defs><g id="Group_8007" data-name="Group 8007" transform="translate(94.85 -4601.188)"><g id="Group_7998" data-name="Group 7998" transform="translate(395.965 4847.578)"><path id="Path_4060" data-name="Path 4060" d="M87.109,274.062l1.607,51.715,84.758-7.091-1.607-51.715Z" transform="translate(174.771 82.769)" fill="#e6f5fa"></path><path id="Path_4061" data-name="Path 4061" d="M109.588,341.754l152.293,15.078,84.758-7.091L381.2,361.215l55.138-14.262,53.713-60.118L322.429,243.328l-178.448,5.546-106.8,42.291Z" transform="translate(0 0)" fill="#fff"></path><path id="Path_4062" data-name="Path 4062" d="M88.65,288.645l21.7-27.279-38.216,27.02Z" transform="translate(122.335 63.148)" fill="#9bd6ea"></path><path id="Path_4063" data-name="Path 4063" d="M125.871,313.113l1.607,51.715,53.713-60.118-1.608-51.715Z" transform="translate(310.467 33.84)" fill="#e6f5fa"></path><path id="Path_4064" data-name="Path 4064" d="M113.62,280.614l1.607,51.715,55.138-14.263-1.607-51.715Z" transform="translate(267.579 80.601)" fill="#bbe4f1"></path><path id="Path_4065" data-name="Path 4065" d="M105.942,266.971l1.607,51.715,34.561,11.474L140.5,278.446Z" transform="translate(240.698 82.769)" fill="#9bd6ea"></path><path id="Path_4066" data-name="Path 4066" d="M53.272,265.2l1.607,51.715L207.172,331.99l-1.607-51.715Z" transform="translate(56.316 76.557)" fill="#bbe4f1"></path><path id="Path_4067" data-name="Path 4067" d="M72.131,267.37l1.327,39.305L88.65,267.629Z" transform="translate(122.335 84.164)" fill="#9bd6ea"></path><path id="Path_4068" data-name="Path 4068" d="M37.185,253.957l1.608,51.715,72.4,50.588-1.607-51.715Z" transform="translate(0 37.209)" fill="#9bd6ea"></path></g><g id="Group_7997" data-name="Group 7997" transform="translate(-132.035 4829.578)"><path id="Path_4060-2" data-name="Path 4060" d="M87.109,276.748l2.216,71.3,116.854-9.776-2.216-71.3Z" transform="translate(259.857 123.065)" fill="#e6f5fa"></path><path id="Path_4061-2" data-name="Path 4061" d="M137.005,379.025l209.962,20.787,116.854-9.776,47.648,15.819,76.017-19.663,74.052-82.883-231.1-59.982-246.022,7.646L37.185,309.28Z" transform="translate(0 0)" fill="#fff"></path><path id="Path_4062-2" data-name="Path 4062" d="M94.906,298.975l29.913-37.608L72.131,298.618Z" transform="translate(181.893 93.89)" fill="#9bd6ea"></path><path id="Path_4063-2" data-name="Path 4063" d="M125.871,335.878l2.216,71.3,74.053-82.883-2.216-71.3Z" transform="translate(461.615 50.315)" fill="#e6f5fa"></path><path id="Path_4064-2" data-name="Path 4064" d="M113.62,286.015l2.216,71.3,76.017-19.663-2.216-71.3Z" transform="translate(397.848 119.841)" fill="#bbe4f1"></path><path id="Path_4065-2" data-name="Path 4065" d="M105.942,266.971l2.216,71.3,47.648,15.819-2.216-71.3Z" transform="translate(357.879 123.065)" fill="#9bd6ea"></path><path id="Path_4066-2" data-name="Path 4066" d="M53.272,265.2l2.216,71.3L265.45,357.283l-2.216-71.3Z" transform="translate(83.733 113.828)" fill="#bbe4f1"></path><path id="Path_4067-2" data-name="Path 4067" d="M72.131,267.37l1.83,54.189,20.945-53.832Z" transform="translate(181.893 125.139)" fill="#9bd6ea"></path><path id="Path_4068-2" data-name="Path 4068" d="M37.185,253.957l2.216,71.3L139.221,395l-2.216-71.3Z" transform="translate(0 55.323)" fill="#9bd6ea"></path></g><g id="Group_8000" data-name="Group 8000" transform="translate(-1484.627 4819.066)"><path id="Path_4069" data-name="Path 4069" d="M2072.406,1068.213s2.364-28.178,24.838-29.027,28.588-3.774,30.689-10.517-4.377-20.855,11.6-21.872,11.555,24.865,11.846,27.185,33.083-2.373,32.336,12.054-36.633,17.937-60.655,15.838S2076.344,1058.884,2072.406,1068.213Z" transform="translate(-24.266 -728.128)" fill="#020303"></path><path id="Path_4070" data-name="Path 4070" d="M2252.4,325.381s-42.3,12.981-65.572-16.112l-1.651,1.4-22.516,19.184-46.325-5.145s3.355-54.38-2.466-70.717S2066.421,108.078,2065.081,12.3c0-19.986.785-45.2,2.72-67.287,1.836-20.951,4.707-39.095,8.916-47.3,0,0-12.941,10.406-17.405,31.178a68.822,68.822,0,0,0-1.438,17.1,84.127,84.127,0,0,0,2.616,17.63s-13.536-12.2-15.1-39.279c-1.12-18.012-7.386-31.443-12.646-47.555s4.735-98.135,89.479-94.555,136.214,82.359,136.214,205.447-40.729,232.744-40.729,257.806S2230.019,318.445,2252.4,325.381Z" transform="translate(0 0)" fill="#020303"></path><path id="Path_4071" data-name="Path 4071" d="M2258.316,244.4c-4.244,10.516-7.709,19.8-10.533,28q-.347,3.2-.676,6.329c-6.335,59.5-10.21,102.674-12.595,133.245a7.18,7.18,0,0,1-2.5,4.9l-17.884,15.239a7.178,7.178,0,0,1-5.445,1.669l-36.52-4.06a7.165,7.165,0,0,1-6.375-7.449c.676-15.049,1.75-51.21-2.812-64.012-3.863-10.856-23.555-71.745-36.716-139.482-6.64-34.175-11.619-70.093-12.069-102.212,0-19.877.78-44.927,2.691-66.923a5.94,5.94,0,0,1,.1-.722s1.191-17.567,3.4-29.322,5.432-17.7,5.432-17.7,31.978-23.942,43.822-40.723a7.111,7.111,0,0,1,5.053-3.008.071.071,0,0,1,.035-.006,89.451,89.451,0,0,1,25.438.485c27.165,4.926,42.2,34.567,30.242,59.451a219.967,219.967,0,0,0,19.022,222.228,7.22,7.22,0,0,1,1.311,4.989s32.529-77.947,29.9-126.968C2280.635,118.354,2289.39,167.376,2258.316,244.4Z" transform="translate(-49.11 -104.27)" fill="url(#linear-gradient)"></path><path id="Path_4072" data-name="Path 4072" d="M2222.2-136.054s10.1-31.078-23.381-38.3c-17.069-3.282,14.443-38.733,58.428-22.321s72.871,58.428,72.214,149.68l-46.611-24.947S2304.665-197.541,2222.2-136.054Z" transform="translate(-96.622 -10.041)" fill="url(#linear-gradient-2)"></path><path id="Path_4073" data-name="Path 4073" d="M2264.807,661.9c-6.335,59.5-10.21,102.674-12.6,133.245a7.179,7.179,0,0,1-2.5,4.9l-17.884,15.239a7.179,7.179,0,0,1-5.446,1.669l-36.52-4.06a7.165,7.165,0,0,1-6.375-7.45c.676-15.049,1.75-51.21-2.812-64.012-3.863-10.856-23.555-71.745-36.716-139.482C2165.273,625.75,2201.92,650.275,2264.807,661.9Z" transform="translate(-66.809 -487.44)" fill="#020303" opacity="0.2" style="mix-blend-mode: multiply;isolation: isolate"></path><path id="Path_4074" data-name="Path 4074" d="M2113.017,20.149l-7.224,13.131s-11,11.971-13.34,37.137a68.81,68.81,0,0,0-1.438,17.1C2087,74.766,2079.374,38.842,2113.017,20.149Z" transform="translate(-33.141 -141.522)" fill="#da7c02"></path><path id="Path_4075" data-name="Path 4075" d="M2187.562,1068.9s5.845-27.666,28.251-25.718,28.836-.194,31.758-6.624-1.753-21.237,14.223-20.262,8.378,26.108,8.378,28.446,33.121,1.753,30.589,15.976-38.577,13.248-62.152,8.183S2192.627,1060.132,2187.562,1068.9Z" transform="translate(-92.733 -733.766)" fill="#111"></path><g id="Group_7999" data-name="Group 7999" transform="translate(2053.782 -137.972)"><ellipse id="Ellipse_238" data-name="Ellipse 238" cx="9.636" cy="3.855" rx="9.636" ry="3.855" transform="translate(0 16.564) rotate(-59.263)" fill="#323c46"></ellipse><ellipse id="Ellipse_239" data-name="Ellipse 239" cx="6.697" cy="2.679" rx="6.697" ry="2.679" transform="translate(2.713 14.642) rotate(-59.263)" fill="#131414"></ellipse><ellipse id="Ellipse_240" data-name="Ellipse 240" cx="0.904" cy="0.857" rx="0.904" ry="0.857" transform="matrix(0.618, -0.786, 0.786, 0.618, 5.245, 10.933)" fill="#fff"></ellipse></g></g><g id="Group_8002" data-name="Group 8002" transform="translate(-1876.769 3329.262)"><path id="Path_4076" data-name="Path 4076" d="M2245.6,1424.434s-15.586-5.045-28.911,4.894-10.842,16.188-21.91,23.642a86.587,86.587,0,0,0-15.133,12.868,84.087,84.087,0,0,0-17.241,28.124c-7.54,20.146,2.077,33.506,6.118,43.517q.3.724.545,1.431c3.612,10.165,8.318,19.088,5.91,45.138,0,0,8.657,3.538,12.722,53s6.476,101.941,5.12,101.866c-1.049-.057-4.277-10.9-5.671-15.759-.4-1.4-.653-2.31-.653-2.31a264,264,0,0,1-18.445,51.948c-13.1,27.331-16.489,39.979-16.489,39.979s-12.2-11.065-41.559-10.389-39.3,16.713-39.3,16.713-28.962-57.926-28.39-104.853q.027-2.369.158-4.694s-5.648,28.234-7.68,27.558.677-66.631,4.968-91.477,14-62.34,15.133-70.47,2.372-37.157,17.845-48.336c0,0,8.351-7.757,18.605-18.4,11.667-12.109,25.8-27.948,32.892-40.331,3.395-5.927,6.643-12.776,10.255-19.7,10.556-20.25,24.208-41.115,53.665-41.285,11.67-.149,14.457,6.852,21.231,7.755S2237.467,1412.087,2245.6,1424.434Z" transform="translate(-7.025)" fill="#020303"></path><path id="Path_4077" data-name="Path 4077" d="M2207.1,1779.271l-.629,2.986c-.4-1.4-.653-2.31-.653-2.31a264,264,0,0,1-18.445,51.948c-13.1,27.331-16.489,39.979-16.489,39.979s-12.2-11.065-41.559-10.389-39.3,16.713-39.3,16.713-24.765-49.534-28.041-94.1c-.268-3.627-.39-7.221-.349-10.753q.286-1.8.608-3.677c4.971-28.911-.149-76.833,5.272-99.42s15.434-67.984,21.079-76.642,36.668-25.373,45.853-32.3,22.962-19.8,18.823-23.189-10.768,6.551-17.244,14.681c-3.511,4.408-15.3,10.282-25.361,14.731,11.667-12.109,25.8-27.948,32.893-40.331,3.394-5.927,6.643-12.776,10.255-19.7,5.5-6.872,12.869-15.354,16.32-16.063,5.874-1.2,6.551,5.948,7.078,12.573s-10.842,18.447-8.508,23.567c1.946,4.265,23.213-.823,30.267-2.641a84.081,84.081,0,0,0-17.24,28.124c-7.32,19.559,1.531,32.723,5.752,42.635.128.3,2.377,5.173,2.493,5.465-.107,0,2.247,2.354,4.477,12.733,3.388,11.971-.9,27.143,0,31.21,6.026,12.8,9.489,45.323,10.541,69.415S2207.1,1779.271,2207.1,1779.271Z" transform="translate(-26.346 -59.099)" fill="url(#linear-gradient-3)"></path><path id="Path_4078" data-name="Path 4078" d="M2054.77,2662.561H2065.8s-7.669-12.532-.935-13.654,19.079.748,19.079.748-2.058,8.791.187,12.719,8.043,29.927,5.985,32.546-26.186,12.345-26.186,12.345l2.245-7.856-21.7,13.468-2.057-7.108s-18.143,5.986-18.331,2.993,28.992-17.208,31.424-24.69S2055.7,2671.353,2054.77,2662.561Z" transform="translate(0 -871.462)" fill="#020303"></path><path id="Path_4079" data-name="Path 4079" d="M2365.689,2664.456h-11.036s7.669-12.532.935-13.654-19.078.748-19.078.748,2.057,8.791-.187,12.719-8.043,29.927-5.985,32.546,26.187,12.345,26.187,12.345l-2.245-7.856,21.7,13.467,2.057-7.107s18.144,5.986,18.331,2.993-28.992-17.208-31.423-24.69S2364.754,2673.247,2365.689,2664.456Z" transform="translate(-214.673 -872.792)" fill="#020303"></path><path id="Path_4080" data-name="Path 4080" d="M2540.663,1462.029s15.585-13.4,40.2-8.207C2580.867,1453.822,2552.333,1457.06,2540.663,1462.029Z" transform="translate(-362.622 -31.948)" fill="#da7c02"></path><path id="Path_4081" data-name="Path 4081" d="M2207.939,2025.166l-.629,2.986c-.4-1.4-.653-2.31-.653-2.31a264,264,0,0,1-18.445,51.948c-13.1,27.332-16.49,39.979-16.49,39.979s-12.2-11.065-41.559-10.389-39.3,16.713-39.3,16.713-24.766-49.534-28.041-94.1c10.216,27.966,25.2,53.227,46.113,54.124,47.43,2.032,75.214-4.745,84.021-71.826,6.392-48.685,1.43-125.359,2.333-121.291,6.026,12.8,9.489,45.323,10.541,69.415S2207.939,2025.166,2207.939,2025.166Z" transform="translate(-27.186 -304.995)" fill="#020303" opacity="0.2" style="mix-blend-mode: multiply;isolation: isolate"></path><g id="Group_8001" data-name="Group 8001" transform="translate(2167.319 1414.697)"><ellipse id="Ellipse_241" data-name="Ellipse 241" cx="7.083" cy="2.834" rx="7.083" ry="2.834" transform="translate(0 4.056) rotate(-16.639)" fill="#323c46"></ellipse><ellipse id="Ellipse_242" data-name="Ellipse 242" cx="4.923" cy="1.969" rx="4.923" ry="1.969" transform="translate(2.424 4.367) rotate(-16.639)" fill="#131414"></ellipse><ellipse id="Ellipse_243" data-name="Ellipse 243" cx="0.665" cy="0.63" rx="0.665" ry="0.63" transform="matrix(0.987, -0.16, 0.16, 0.987, 5.64, 3.621)" fill="#fff"></ellipse></g></g></g></svg>