<svg xmlns="http://www.w3.org/2000/svg" xmlns:xlink="http://www.w3.org/1999/xlink" width="1095" height="871" viewBox="0 0 1095 871"><defs><clipPath id="a"><rect width="1095" height="871" transform="translate(306 60)" fill="#fff" stroke="#707070" stroke-width="1"></rect></clipPath><linearGradient id="b" x1="0.399" y1="-0.002" x2="0.624" y2="0.999" gradientUnits="objectBoundingBox"><stop offset="0" stop-color="#d07201"></stop><stop offset="0.17" stop-color="#e7ba62"></stop><stop offset="0.216" stop-color="#ecca87"></stop><stop offset="0.266" stop-color="#f1d8a7"></stop><stop offset="0.322" stop-color="#f5e4c2"></stop><stop offset="0.386" stop-color="#f9eed8"></stop><stop offset="0.459" stop-color="#fbf5ea"></stop><stop offset="0.549" stop-color="#fdfbf6"></stop><stop offset="0.674" stop-color="#fefefd"></stop><stop offset="1" stop-color="#fff"></stop></linearGradient><linearGradient id="c" x1="0.095" y1="-0.018" x2="1.021" y2="1.032" gradientUnits="objectBoundingBox"><stop offset="0" stop-color="#d07201"></stop><stop offset="0.039" stop-color="#d88c24"></stop><stop offset="0.083" stop-color="#e0a545"></stop><stop offset="0.119" stop-color="#e5b45a"></stop><stop offset="0.144" stop-color="#e7ba62"></stop><stop offset="0.19" stop-color="#ebc67e" stop-opacity="0.82"></stop><stop offset="0.248" stop-color="#efd39c" stop-opacity="0.631"></stop><stop offset="0.31" stop-color="#f3dfb6" stop-opacity="0.459"></stop><stop offset="0.376" stop-color="#f7e9cd" stop-opacity="0.318"></stop><stop offset="0.446" stop-color="#faf1df" stop-opacity="0.2"></stop><stop offset="0.522" stop-color="#fcf7ed" stop-opacity="0.11"></stop><stop offset="0.608" stop-color="#fdfbf7" stop-opacity="0.047"></stop><stop offset="0.71" stop-color="#fefefd" stop-opacity="0.012"></stop><stop offset="0.873" stop-color="#fff" stop-opacity="0"></stop></linearGradient><linearGradient id="d" x1="0.601" y1="-0.002" x2="0.376" y2="0.999" xlink:href="#b"></linearGradient><linearGradient id="e" x1="0.905" y1="-0.018" x2="-0.021" y2="1.032" xlink:href="#c"></linearGradient></defs><g transform="translate(-306 -60)" clip-path="url(#a)"><g transform="translate(-523.553 -95.804)"><g transform="translate(829.557 667.734)"><path d="M1919.28,1731.53s11.3,19.082,22.45,40.632l404.784,20.036,298.337-3.776,541.982-16.259-15.245-22.9c8.645,7.633-74.928-73.784-74.928-73.784,0-11.449-27.579-157.669-27.579-157.669l-.98-.942-55.216-52.488s-82.133,0-121.038-3.816-242.075-3.817-242.075-3.817-280.952,91.594-319.857,99.227-198.848,34.348-198.848,34.348-110.864,43.736-170.518,72.741c-10.2,4.961-18.877,9.49-25.274,13.281-6.888,4.071-11.095,7.328-11.672,9.389C1919.28,1701,1919.28,1731.53,1919.28,1731.53Z" transform="translate(-1919.282 -1456.746)" fill="#e4f0f9"></path><path d="M2295.78,1785.28l103.3-2.794-15.707-255.421-48.012-1.7Z" transform="translate(-1478.82 -1456.746)" fill="#cee3ef"></path><path d="M2063.58,1544.02c3.026,4.045-26.9,236.32-26.9,236.32l139.42-3.94-51.05-232.389Z" transform="translate(-1051.413 -1456.746)" fill="#cee3ef"></path><path d="M3082.57,1731.53s11.3,19.082,22.45,40.632h81.816c-6.2-4.555-10.462-7.633-10.462-7.633l-26.887-20.354-2.111-44.843-5.944-13.676-17.593-22.593c-21.125,10.279-35.822,18.675-36.946,22.67C3082.57,1701,3082.57,1731.53,3082.57,1731.53Z" transform="translate(-3082.569 -1456.746)" fill="#a9c3da"></path><path d="M2106.76,1552.16l37.186,197.106-74.928-205.239Z" transform="translate(-1026.12 -1456.746)" fill="#a9c3da"></path><path d="M2294.88,1544.02l-9.606,105.164s-19.212-111.948-13.449-111.948S2294.88,1544.02,2294.88,1544.02Z" transform="translate(-1378.784 -1456.746)" fill="#a9c3da"></path><path d="M2420.29,1732.29c0,4.351-6.282,25.316-10.807,39.869l164.928-3.872c-3.083-23.815-34.985-86.883-34.985-86.883s-23.055,78.034-30.75,79.738c-7.694,1.679-34.582-132.3-34.582-132.3s-7.694,117.037-9.6,123.805C2462.57,1759.44,2420.29,1725.52,2420.29,1732.29Z" transform="translate(-1780.867 -1439.635)" fill="#cee3ef"></path><path d="M2685.1,1731.53s20.894,49.052,32.046,70.6l141.18,13.944,247.5-23.239,100.662-1.856-45.249-79.042-15.388,54.294-63.4-149.272-115.274,20.354-32.652,122.126-38.415-1.7-15.389-39-19.193,42.413-73.025-1.7-39.5-59.791-47.91-23.306c-6.888,4.071-11.095,7.328-11.672,9.389C2685.1,1701,2685.1,1731.53,2685.1,1731.53Z" transform="translate(-2685.104 -1456.746)" fill="#cee3ef"></path><path d="M3143.92,1701.24c3.843,5.088,38.6,58.2,38.6,58.2l-61.471-59.367-37.608-14.341Z" transform="translate(-3079.11 -1456.746)" fill="#a9c3da"></path><path d="M2800.99,1616.96l44.2,130.607-65.322-98.379-17.291-8.481-1.921,16.962-15.37-30.531Z" transform="translate(-2403.644 -1456.746)" fill="#a9c3da"></path><path d="M2038.01,1685.73l60.52,15.27,220.432-53.43,263.69-34.348,177.205-41.98s177.234-30.532,203.17-26.715,151.3,7.633,151.3,7.633l56.2-30.532,11.989-4.758-55.216-52.488s-82.133,0-121.038-3.816-242.075-3.817-242.075-3.817-280.952,91.594-319.857,99.227-198.848,34.348-198.848,34.348S2042.34,1670.47,2038.01,1685.73Z" transform="translate(-2033.691 -1456.746)" fill="#fff"></path></g><g transform="translate(1451.175 157.098)"><path d="M427.3,678.967c-20.386,9.185-55.948-7.191-69.272-14.074-1.642-.863-2.959-1.553-3.856-2.052-.916-.5-1.393-.767-1.393-.767-13.343,1.457-28.957,5.254-41.25,8.686h-.019c-11.873,3.336-20.654,6.309-21.188,6.481l-.019.019a128.164,128.164,0,0,0-3.97-14.343,2.972,2.972,0,0,0-.1-.326c-15.023-46.634-63.583-165.576-73.376-235.6-2.94-38-11.358-102.145,14.144-171.1.4-1.035.783-2.09,1.184-3.126.573-1.515,1.183-3.03,1.794-4.544,11.3-27.823,19.795-48.283,22.333-63.853,1.47-9.012.954-16.4-2.2-22.607a76.987,76.987,0,0,0-22.906-26.423A85.6,85.6,0,0,0,180.7,119.67c6.555-7.886,15.249-8.917,24.607-8.786a30.344,30.344,0,0,1,3.774.294l1.906.219.858.076.549.049c.7,0,4.531.7,5.611.781,10.656.826,25.549,6.487,42.771,2.726,49.286-9.76,68.107,25.733,72.879,33.94,4.791,8.207,21.455,57.813,42.128,111.426s38.559,98.56,43.808,144.733c5.249,46.193-1.852,110.026-10.174,160.246-8.342,50.2,3.226,91.12,8.781,100.42S432.858,677.107,427.3,678.967Z" transform="translate(-180.21 -112.168)" fill="#020303"></path><path d="M363.726,499.472c.4,10.881.477,21.054.286,30.556-1.087,50.882-10.086,83.085-19.7,103.372a10.842,10.842,0,0,0-3.852-2.05c-3.832-1.092-7.36.383-9.858,1.552-9.743,4.578-22.194,13.257-24.044,14.56a17.3,17.3,0,0,0-8.676-8.18l-.019-.019h-.019c-6.845-2.682-15.387-.172-21.164,6.475l-.019.019c.286-4.5-1.888-8.621-3.966-14.33a2.977,2.977,0,0,0-.1-.326,6.96,6.96,0,0,1-.248-.671c-2.574-7.414-9.114-18.908-9.858-19.828-6.159-7.471-40.823-69.138-56.82-163.411-2.765-16.226-4.957-33.429-6.368-51.475-2.936-37.97-11.345-102.05,14.129-170.94.4-1.034.782-2.088,1.182-3.123.572-1.513,1.182-3.027,1.792-4.54,11.288-27.8,19.773-48.238,22.308-63.793,7.055-4.751,14.415-7.261,21.965-7.261,23.014,0,41.89,36.667,56.667,83.64,2.4,21.265,3.947,46.744,1.7,69.866-4.118,42.548,14.853,132.759,42.882,170.058,0,0,19.3-43.487,20.688-71.131,1.354-26.839-7.131-86.533-7.608-89.962.7,2.931,10.868,46.744,11.764,85.556C387.617,430.851,370.075,469.357,363.726,499.472Z" transform="translate(-166.799 -80.684)" fill="url(#b)"></path><path d="M261.841,137.881s-24.48-6.64-45.921-8.116A82.9,82.9,0,0,0,193.43,118.4C213.924,120.566,247.765,125.857,261.841,137.881Z" transform="translate(-168.83 -106.479)" fill="#da7c02"></path><path d="M232.1,165.41s33.5-8.667,22.256-30.689c-3.749-6.559,18.741-25.3,33.733,9.606s54.82,171.015,54.82,171.015l-54.82-64.658S276.146,176.421,232.1,165.41Z" transform="translate(-134.594 -101.444)" fill="url(#c)"></path><path d="M361.352,386.81c-1.094,51.324-10.2,83.8-19.949,104.279a11.047,11.047,0,0,0-3.913-2.072c-3.882-1.1-7.45.379-9.985,1.565-9.865,4.611-22.5,13.378-24.363,14.683a17.583,17.583,0,0,0-8.8-8.259c-6.955-2.74-15.622-.193-21.495,6.539.309-4.81-2.188-9.187-4.371-15.462-2.609-7.473-9.241-19.077-9.995-19.991-6.232-7.542-41.378-69.752-57.587-164.839C222.682,351.3,252.017,401,282.055,407.34,332.216,417.919,349.606,414.736,361.352,386.81Z" transform="translate(-162.982 61.512)" fill="#020303" opacity="0.2"></path><path d="M323.909,392.847c-3.7-.338-7.587-.574-11.286-.578a16.291,16.291,0,0,0-14.072,8.348c-3.438,5.987-11.643,13.676-31.176,14.594-32.494,1.531-61.547,1.913-69.574,21.025-2.294,6.5,36.317-5.734,64.987-.763,21.6,3.743,57.288,1.847,72.282-16.469C343.222,409.047,336.725,394.024,323.909,392.847Z" transform="translate(-164.846 144.515)" fill="#020303"></path><g transform="translate(85.901 8.237)"><path d="M244.9,125.791c-.356.93-1.505,1.453-3.121,1.571a18.529,18.529,0,0,0-1.345-1.523,20.513,20.513,0,0,0-11.8-5.83,20.964,20.964,0,0,0-2.738-.2,2.239,2.239,0,0,1-.135-1.72c.816-2.126,5.768-2.126,11.052,0S245.724,123.659,244.9,125.791Z" transform="translate(-225.652 -116.492)" fill="#323c46"></path><path d="M240.578,123.923A1.913,1.913,0,0,1,239,124.936a20.513,20.513,0,0,0-11.8-5.83,1.186,1.186,0,0,1,.073-.533c.568-1.48,4.012-1.48,7.683,0S241.148,122.445,240.578,123.923Z" transform="translate(-224.212 -115.588)" fill="#131414"></path><ellipse cx="0.918" cy="0.968" rx="0.918" ry="0.968" transform="translate(7.577 3.984) rotate(-60.479)" fill="#fff"></ellipse></g></g><g transform="translate(1319.593 358.355)"><path d="M181.923,510.806c14.4,6.459,39.526-5.057,48.939-9.9,1.16-.607,2.09-1.092,2.724-1.443s.984-.539.984-.539c9.426,1.025,20.457,3.7,29.142,6.109h.014c8.388,2.346,14.591,4.437,14.969,4.558l.013.014a89.805,89.805,0,0,1,2.8-10.087,2.086,2.086,0,0,1,.067-.229c10.613-32.8,44.92-116.447,51.838-165.7,2.077-26.728,8.024-71.837-9.993-120.331-.283-.728-.553-1.47-.836-2.2-.4-1.065-.836-2.131-1.268-3.2-7.983-19.567-13.984-33.956-15.778-44.907-1.038-6.338-.674-11.53,1.551-15.9a54.219,54.219,0,0,1,16.183-18.583,60.653,60.653,0,0,1,32.864-11.018c-5.731-6.864-15.643-5-23.168-5s-20.376,4.572-33.4,1.74c-34.819-6.864-48.116,18.1-51.487,23.869s-15.158,40.659-29.762,78.364-27.241,69.315-30.949,101.788,1.308,77.38,7.188,112.7-2.279,64.083-6.2,70.623S178,509.5,181.923,510.806Z" transform="translate(-180.7 -112.229)" fill="#020303"></path><path d="M211.932,394.84c-.283,7.66-.337,14.821-.2,21.509.769,35.817,7.134,58.486,13.93,72.767a7.681,7.681,0,0,1,2.724-1.443c2.711-.769,5.205.27,6.972,1.092,6.891,3.223,15.7,9.332,17.005,10.249a12.206,12.206,0,0,1,6.136-5.758l.013-.014h.014c4.841-1.888,10.883-.121,14.969,4.558l.013.013c-.2-3.169,1.335-6.069,2.8-10.087a2.1,2.1,0,0,1,.067-.229,4.879,4.879,0,0,0,.175-.472,87.28,87.28,0,0,1,6.972-13.958c4.356-5.259,28.872-48.669,40.187-115.031,1.955-11.422,3.506-23.532,4.5-36.235,2.077-26.728,8.024-71.837-9.993-120.331-.283-.728-.553-1.47-.836-2.2-.4-1.065-.836-2.131-1.268-3.2-7.983-19.567-13.984-33.956-15.778-44.907a27.717,27.717,0,0,0-15.535-5.111c-16.277,0-29.628,25.811-40.079,58.878-1.7,14.969-2.791,32.9-1.2,49.181,2.913,29.951-10.505,93.454-30.329,119.71,0,0-13.647-30.612-14.632-50.072-.957-18.893,5.044-60.914,5.381-63.328-.5,2.063-7.687,32.9-8.321,60.226C195.035,346.535,207.442,373.641,211.932,394.84Z" transform="translate(-175.499 -100.438)" fill="url(#d)"></path><path d="M193.43,131.993s17.083-4.634,32.046-5.664A57.853,57.853,0,0,1,241.17,118.4C226.869,119.91,203.253,123.6,193.43,131.993Z" transform="translate(-82.895 -110.08)" fill="#da7c02"></path><path d="M309.43,152.836s-23.377-6.048-15.531-21.416c2.616-4.577-13.078-17.655-23.54,6.7S232.1,257.464,232.1,257.464l38.256-45.121S278.7,160.52,309.43,152.836Z" transform="translate(-203.307 -108.198)" fill="url(#e)"></path><path d="M200.89,361.562c.763,35.816,7.122,58.482,13.921,72.77a7.71,7.71,0,0,1,2.731-1.446c2.709-.767,5.2.264,6.968,1.092,6.884,3.218,15.7,9.336,17,10.246a12.27,12.27,0,0,1,6.144-5.764c4.853-1.912,10.9-.135,15,4.564-.216-3.357,1.527-6.411,3.05-10.79a86.821,86.821,0,0,1,6.975-13.951c4.349-5.263,28.875-48.676,40.187-115.031-15.208,33.525-35.678,68.213-56.64,72.635C221.222,383.271,209.087,381.05,200.89,361.562Z" transform="translate(-164.652 -45.649)" fill="#020303" opacity="0.2"></path><path d="M208.008,392.672c2.578-.236,5.294-.4,7.875-.4a11.368,11.368,0,0,1,9.82,5.826c2.4,4.178,8.125,9.544,21.756,10.184,22.676,1.068,42.95,1.335,48.552,14.672,1.6,4.535-25.343-4-45.35-.533-15.07,2.612-39.978,1.289-50.441-11.492a11.25,11.25,0,0,1,7.788-18.257Z" transform="translate(-143.566 -14.623)" fill="#020303"></path><g transform="translate(101.306 5.748)"><path d="M225.733,122.981c.248.649,1.051,1.014,2.178,1.1a12.926,12.926,0,0,1,.939-1.063,14.315,14.315,0,0,1,8.233-4.069,14.628,14.628,0,0,1,1.911-.142,1.562,1.562,0,0,0,.094-1.2c-.569-1.483-4.025-1.483-7.712,0S225.161,121.494,225.733,122.981Z" transform="translate(-225.652 -116.492)" fill="#323c46"></path><path d="M227.253,121.97a1.335,1.335,0,0,0,1.1.707,14.315,14.315,0,0,1,8.233-4.069.827.827,0,0,0-.051-.372c-.4-1.033-2.8-1.033-5.362,0S226.855,120.939,227.253,121.97Z" transform="translate(-225.157 -116.154)" fill="#131414"></path><ellipse cx="0.64" cy="0.676" rx="0.64" ry="0.676" transform="translate(7.053 3.446) rotate(-119.521)" fill="#fff"></ellipse></g></g></g></g></svg>