<svg xmlns="http://www.w3.org/2000/svg" xmlns:xlink="http://www.w3.org/1999/xlink" width="20.34" height="20.34" viewBox="0 0 20.34 20.34"><defs><clipPath id="a"><rect width="20.34" height="20.34" fill="none"/></clipPath><clipPath id="b"><circle cx="10.17" cy="10.17" r="10.17" transform="translate(5.29 0)" fill="none"/></clipPath></defs><g clip-path="url(#a)"><g transform="translate(-5.29)"><g clip-path="url(#b)"><rect width="38.66" height="1.57" fill="#b01820"/><rect width="38.66" height="1.57" transform="translate(0 18.78)" fill="#b01820"/><rect width="38.66" height="1.57" transform="translate(0 15.65)" fill="#b01820"/><rect width="38.66" height="1.57" transform="translate(0 12.52)" fill="#b01820"/><rect width="38.66" height="1.57" transform="translate(0 9.39)" fill="#b01820"/><rect width="38.66" height="1.57" transform="translate(0 6.26)" fill="#b01820"/><rect width="38.66" height="1.57" transform="translate(0 3.13)" fill="#b01820"/><rect width="38.66" height="1.57" transform="translate(0 17.22)" fill="#fff"/><rect width="38.66" height="1.57" transform="translate(0 14.09)" fill="#fff"/><rect width="38.66" height="1.57" transform="translate(0 10.96)" fill="#fff"/><rect width="38.66" height="1.57" transform="translate(0 7.83)" fill="#fff"/><rect width="38.66" height="1.57" transform="translate(0 4.7)" fill="#fff"/><rect width="38.66" height="1.57" transform="translate(0 1.57)" fill="#fff"/><rect width="15.46" height="10.96" fill="#002a70"/><path d="M1.29.47,1.15.9H.69l.37.27L.92,1.6l.37-.27.37.27-.14-.43L1.89.9H1.43Z" fill="#fff"/><path d="M3.87.47,3.73.9H3.27l.37.27L3.5,1.6l.37-.27.37.27-.15-.43L4.46.9H4.01Z" fill="#fff"/><path d="M6.44.47,6.3.9H5.85l.37.27-.14.43.36-.27.37.27-.14-.43L7.04.9H6.58Z" fill="#fff"/><path d="M9.02.47,8.88.9H8.43l.36.27-.14.43.37-.27.37.27-.14-.43L9.62.9H9.16Z" fill="#fff"/><path d="M11.6.47,11.46.9H11l.37.27-.14.43.37-.27.37.27-.14-.43L12.2.9h-.46Z" fill="#fff"/><path d="M13.81,1.6l.37-.27.36.27-.14-.43L14.77.9h-.45L14.18.47,14.04.9h-.46l.37.27Z" fill="#fff"/><path d="M1.29,2.66l-.14.43H.69l.37.27-.14.43.37-.26.37.26-.14-.43.37-.27H1.43Z" fill="#fff"/><path d="M3.87,2.66l-.14.43H3.27l.37.27-.14.43.37-.26.37.26-.15-.43.37-.27H4.01Z" fill="#fff"/><path d="M6.44,2.66l-.14.43H5.85l.37.27-.14.43.36-.26.37.26-.14-.43.37-.27H6.58Z" fill="#fff"/><path d="M9.02,2.66l-.14.43H8.43l.36.27-.14.43.37-.26.37.26-.14-.43.37-.27H9.16Z" fill="#fff"/><path d="M11.6,2.66l-.14.43H11l.37.27-.14.43.37-.26.37.26-.14-.43.37-.27h-.46Z" fill="#fff"/><path d="M14.18,2.66l-.14.43h-.46l.37.27-.14.43.37-.26.36.26-.14-.43.37-.27h-.45Z" fill="#fff"/><path d="M1.29,4.85l-.14.44H.69l.37.26-.14.44.37-.27.37.27-.14-.44.37-.26H1.43Z" fill="#fff"/><path d="M3.87,4.85l-.14.44H3.27l.37.26-.14.44.37-.27.37.27-.15-.44.37-.26H4.01Z" fill="#fff"/><path d="M6.44,4.85l-.14.44H5.85l.37.26-.14.44.36-.27.37.27-.14-.44.37-.26H6.58Z" fill="#fff"/><path d="M9.02,4.85l-.14.44H8.43l.36.26-.14.44.37-.27.37.27-.14-.44.37-.26H9.16Z" fill="#fff"/><path d="M11.6,4.85l-.14.44H11l.37.26-.14.44.37-.27.37.27-.14-.44.37-.26h-.46Z" fill="#fff"/><path d="M14.18,4.85l-.14.44h-.46l.37.26-.14.44.37-.27.36.27-.14-.44.37-.26h-.45Z" fill="#fff"/><path d="M1.29,7.04l-.14.44H.69l.37.26-.14.44.37-.27.37.27-.14-.44.37-.26H1.43Z" fill="#fff"/><path d="M3.87,7.04l-.14.44H3.27l.37.26-.14.44.37-.27.37.27-.15-.44.37-.26H4.01Z" fill="#fff"/><path d="M6.44,7.04l-.14.44H5.85l.37.26-.14.44.36-.27.37.27-.14-.44.37-.26H6.58Z" fill="#fff"/><path d="M9.02,7.04l-.14.44H8.43l.36.26-.14.44.37-.27.37.27-.14-.44.37-.26H9.16Z" fill="#fff"/><path d="M11.6,7.04l-.14.44H11l.37.26-.14.44.37-.27.37.27-.14-.44.37-.26h-.46Z" fill="#fff"/><path d="M14.18,7.04l-.14.44h-.46l.37.26-.14.44.37-.27.36.27-.14-.44.37-.26h-.45Z" fill="#fff"/><path d="M1.43,9.67l-.14-.44-.14.44H.69l.37.27-.14.43.37-.27.37.27-.14-.43.37-.27Z" fill="#fff"/><path d="M4.01,9.67l-.14-.44-.14.44H3.27l.37.27-.14.43.37-.27.37.27-.15-.43.37-.27Z" fill="#fff"/><path d="M6.58,9.67l-.14-.44-.14.44H5.85l.37.27-.14.43.36-.27.37.27-.14-.43.37-.27Z" fill="#fff"/><path d="M9.16,9.67l-.14-.44-.14.44H8.43l.36.27-.14.43.37-.27.37.27-.14-.43.37-.27Z" fill="#fff"/><path d="M11.74,9.67l-.14-.44-.14.44H11l.37.27-.14.43.37-.27.37.27-.14-.43.37-.27Z" fill="#fff"/><path d="M14.32,9.67l-.14-.44-.14.44h-.46l.37.27-.14.43.37-.27.36.27-.14-.43.37-.27Z" fill="#fff"/><path d="M2.58,1.56,2.44,2H1.98l.37.27-.14.43.37-.27.37.27-.14-.43L3.17,2H2.72Z" fill="#fff"/><path d="M5.16,1.56,5.01,2H4.56l.37.27-.14.43.37-.27.36.27-.14-.43L5.75,2H5.3Z" fill="#fff"/><path d="M7.73,1.56,7.59,2H7.14l.36.27-.14.43.37-.27.37.27-.14-.43L8.33,2H7.87Z" fill="#fff"/><path d="M10.31,1.56,10.17,2H9.71l.37.27-.14.43.37-.27.37.27-.14-.43L10.91,2h-.46Z" fill="#fff"/><path d="M12.89,1.56,12.75,2h-.46l.37.27-.14.43.37-.27.37.27-.14-.43L13.48,2h-.45Z" fill="#fff"/><path d="M2.58,3.76l-.14.43H1.98l.37.27-.14.43.37-.27.37.27-.14-.43.36-.27H2.72Z" fill="#fff"/><path d="M5.16,3.76l-.15.43H4.56l.37.27-.14.43.37-.27.36.27-.14-.43.37-.27H5.3Z" fill="#fff"/><path d="M7.73,3.76l-.14.43H7.14l.36.27-.14.43.37-.27.37.27-.14-.43.37-.27H7.87Z" fill="#fff"/><path d="M10.31,3.76l-.14.43H9.71l.37.27-.14.43.37-.27.37.27-.14-.43.37-.27h-.46Z" fill="#fff"/><path d="M12.89,3.76l-.14.43h-.46l.37.27-.14.43.37-.27.37.27-.14-.43.36-.27h-.45Z" fill="#fff"/><path d="M2.58,5.95l-.14.43H1.98l.37.27-.14.43.37-.27.37.27-.14-.43.36-.27H2.72Z" fill="#fff"/><path d="M5.16,5.95l-.15.43H4.56l.37.27-.14.43.37-.27.36.27-.14-.43.37-.27H5.3Z" fill="#fff"/><path d="M7.73,5.95l-.14.43H7.14l.36.27-.14.43.37-.27.37.27-.14-.43.37-.27H7.87Z" fill="#fff"/><path d="M10.31,5.95l-.14.43H9.71l.37.27-.14.43.37-.27.37.27-.14-.43.37-.27h-.46Z" fill="#fff"/><path d="M12.89,5.95l-.14.43h-.46l.37.27-.14.43.37-.27.37.27-.14-.43.36-.27h-.45Z" fill="#fff"/><path d="M2.72,8.57l-.14-.43-.14.43H1.98l.37.27-.14.43.37-.26.37.26-.14-.43.36-.27Z" fill="#fff"/><path d="M5.3,8.57l-.14-.43-.15.43H4.56l.37.27-.14.43.37-.26.36.26-.14-.43.37-.27Z" fill="#fff"/><path d="M7.87,8.57l-.14-.43-.14.43H7.14l.36.27-.14.43.37-.26.37.26-.14-.43.37-.27Z" fill="#fff"/><path d="M10.45,8.57l-.14-.43-.14.43H9.71l.37.27-.14.43.37-.26.37.26-.14-.43.37-.27Z" fill="#fff"/><path d="M13.03,8.57l-.14-.43-.14.43h-.46l.37.27-.14.43.37-.26.37.26-.14-.43.36-.27Z" fill="#fff"/></g></g></g></svg>